<svg width="590" height="107" viewBox="0 0 590 107" fill="none" xmlns="http://www.w3.org/2000/svg">
<path d="M0 1.20307V96.5883H43.1621V82.1951H17.6517V55.0642H38.4224V40.671L17.6517 40.7755V15.6311H42.6742V1.20307H0ZM113.647 1.20307V96.5883H131.298V54.7679H152.017V96.5883H169.669V1.20307H152.017V40.3573H131.298V1.20307H113.647ZM76.9494 97.6686C92.3358 97.6686 102.791 87.2135 102.791 71.6355V67.6974H86.7075V70.7468C86.7075 78.4487 82.5603 83.2755 76.9494 83.2755C70.537 83.2755 66.4943 78.2396 66.4943 70.0672V26.6438C66.4943 19.151 70.537 14.5159 76.9494 14.5159C83.3619 14.5159 86.7075 18.9593 86.7075 25.8596V35.3215H102.983L103.087 25.0581C103.192 10.1596 92.3358 0.000732422 76.7577 0.000732422C61.1797 0.000732422 50.4284 11.9369 50.4284 27.1317V70.5377C50.4284 85.9241 61.3713 97.6686 76.9668 97.6686H76.9494Z" fill="#030F4F"/>
<path d="M194.689 39.7127C189.496 36.7678 184.948 32.76 182.3 30.6167C180.609 35.7746 180.383 41.037 181.359 45.7243C183.798 57.3643 193.696 65.8678 207.688 62.9404C223.562 59.6296 232.798 40.0089 229.696 20.2314C227.379 5.40258 216.575 -2.12508 203.959 0.523544C193.295 2.75396 186.203 12.5992 188.294 22.5838C190.228 31.8017 200.614 37.7611 212.114 35.3564C228.285 31.9759 236.231 25.8248 245.553 9.20126L235.847 3.50324C229.748 16.2236 222.865 22.1481 211.452 24.5354C206.015 25.668 201.311 23.9778 200.352 19.3601C199.324 14.4462 202.025 11.5188 205.283 10.8392C208.769 10.1074 213.369 11.7453 214.589 20.2488C217.429 39.8521 214.066 48.373 205.911 50.0806C198.958 51.5269 194.741 45.7069 194.741 39.7127H194.689Z" fill="#030F4F"/>
<path d="M207.13 96.571C213.337 96.571 218.369 91.539 218.369 85.3317C218.369 79.1245 213.337 74.0925 207.13 74.0925C200.923 74.0925 195.891 79.1245 195.891 85.3317C195.891 91.539 200.923 96.571 207.13 96.571Z" fill="#030F4F"/>
<path d="M278.048 32H273.968V18.248H269.528V14.864H282.488V18.248H278.048V32ZM289.479 16.952C289.479 17.752 289.455 18.472 289.407 19.112C289.359 19.736 289.319 20.192 289.287 20.48H289.503C289.791 20.016 290.119 19.648 290.487 19.376C290.855 19.104 291.271 18.904 291.735 18.776C292.199 18.648 292.695 18.584 293.223 18.584C294.135 18.584 294.943 18.752 295.647 19.088C296.351 19.424 296.903 19.944 297.303 20.648C297.719 21.352 297.927 22.272 297.927 23.408V32H293.871V24.536C293.871 23.608 293.719 22.92 293.415 22.472C293.127 22.008 292.655 21.776 291.999 21.776C291.359 21.776 290.855 21.944 290.487 22.28C290.119 22.6 289.855 23.072 289.695 23.696C289.551 24.32 289.479 25.088 289.479 26V32H285.423V13.76H289.479V16.952ZM307.682 18.584C308.93 18.584 310.002 18.816 310.898 19.28C311.81 19.728 312.506 20.4 312.986 21.296C313.482 22.176 313.73 23.272 313.73 24.584V26.456H305.402C305.434 27.32 305.714 28.008 306.242 28.52C306.77 29.032 307.522 29.288 308.498 29.288C309.346 29.288 310.114 29.208 310.802 29.048C311.49 28.888 312.202 28.632 312.938 28.28V31.28C312.298 31.616 311.61 31.856 310.874 32C310.138 32.16 309.234 32.24 308.162 32.24C306.834 32.24 305.65 32 304.61 31.52C303.586 31.04 302.778 30.304 302.186 29.312C301.61 28.304 301.322 27.032 301.322 25.496C301.322 23.928 301.586 22.64 302.114 21.632C302.642 20.608 303.386 19.848 304.346 19.352C305.306 18.84 306.418 18.584 307.682 18.584ZM307.754 21.392C307.13 21.392 306.61 21.592 306.194 21.992C305.794 22.376 305.554 22.992 305.474 23.84H310.01C310.01 23.376 309.922 22.96 309.746 22.592C309.586 22.224 309.338 21.936 309.002 21.728C308.666 21.504 308.25 21.392 307.754 21.392ZM340.057 23.408C340.057 24.736 339.897 25.944 339.577 27.032C339.257 28.104 338.761 29.032 338.089 29.816C337.417 30.6 336.561 31.2 335.521 31.616C334.481 32.032 333.249 32.24 331.825 32.24C330.417 32.24 329.193 32.032 328.153 31.616C327.113 31.184 326.257 30.584 325.585 29.816C324.913 29.032 324.409 28.096 324.073 27.008C323.753 25.92 323.593 24.712 323.593 23.384C323.593 21.608 323.881 20.064 324.457 18.752C325.049 17.44 325.953 16.424 327.169 15.704C328.401 14.968 329.961 14.6 331.849 14.6C333.753 14.6 335.305 14.968 336.505 15.704C337.721 16.424 338.617 17.448 339.193 18.776C339.769 20.088 340.057 21.632 340.057 23.408ZM327.889 23.408C327.889 24.528 328.025 25.496 328.297 26.312C328.569 27.112 328.993 27.728 329.569 28.16C330.161 28.592 330.913 28.808 331.825 28.808C332.769 28.808 333.529 28.592 334.105 28.16C334.681 27.728 335.097 27.112 335.353 26.312C335.625 25.496 335.761 24.528 335.761 23.408C335.761 21.712 335.457 20.384 334.849 19.424C334.257 18.464 333.257 17.984 331.849 17.984C330.921 17.984 330.161 18.208 329.569 18.656C328.993 19.088 328.569 19.712 328.297 20.528C328.025 21.328 327.889 22.288 327.889 23.408ZM347.815 17.96C347.815 18.44 347.799 18.912 347.767 19.376C347.735 19.824 347.695 20.208 347.647 20.528H347.815C348.151 19.984 348.607 19.528 349.183 19.16C349.775 18.776 350.527 18.584 351.439 18.584C352.863 18.584 354.023 19.16 354.919 20.312C355.831 21.464 356.287 23.152 356.287 25.376C356.287 26.88 356.071 28.144 355.639 29.168C355.223 30.192 354.647 30.96 353.911 31.472C353.175 31.984 352.311 32.24 351.319 32.24C350.375 32.24 349.639 32.072 349.111 31.736C348.583 31.4 348.151 31.032 347.815 30.632H347.551L346.903 32H343.759V13.76H347.815V17.96ZM350.047 21.776C349.519 21.776 349.087 21.896 348.751 22.136C348.431 22.36 348.191 22.704 348.031 23.168C347.887 23.632 347.815 24.224 347.815 24.944V25.448C347.815 26.6 347.975 27.48 348.295 28.088C348.631 28.68 349.231 28.976 350.095 28.976C350.735 28.976 351.239 28.664 351.607 28.04C351.975 27.416 352.159 26.512 352.159 25.328C352.159 24.16 351.975 23.28 351.607 22.688C351.239 22.08 350.719 21.776 350.047 21.776ZM369.2 28.016C369.2 28.88 369 29.632 368.6 30.272C368.216 30.896 367.608 31.384 366.776 31.736C365.944 32.072 364.888 32.24 363.608 32.24C362.68 32.24 361.864 32.184 361.16 32.072C360.472 31.96 359.776 31.76 359.072 31.472V28.208C359.84 28.544 360.64 28.808 361.472 29C362.32 29.192 363.024 29.288 363.584 29.288C364.192 29.288 364.632 29.208 364.904 29.048C365.176 28.888 365.312 28.664 365.312 28.376C365.312 28.168 365.24 27.984 365.096 27.824C364.968 27.664 364.696 27.48 364.28 27.272C363.88 27.064 363.28 26.8 362.48 26.48C361.696 26.144 361.048 25.8 360.536 25.448C360.04 25.096 359.664 24.672 359.408 24.176C359.168 23.68 359.048 23.072 359.048 22.352C359.048 21.104 359.528 20.168 360.488 19.544C361.464 18.904 362.752 18.584 364.352 18.584C365.2 18.584 366 18.672 366.752 18.848C367.504 19.024 368.28 19.296 369.08 19.664L367.928 22.4C367.496 22.208 367.064 22.04 366.632 21.896C366.216 21.752 365.816 21.64 365.432 21.56C365.048 21.48 364.688 21.44 364.352 21.44C363.904 21.44 363.56 21.504 363.32 21.632C363.08 21.744 362.96 21.92 362.96 22.16C362.96 22.336 363.024 22.504 363.152 22.664C363.296 22.808 363.56 22.968 363.944 23.144C364.344 23.32 364.92 23.568 365.672 23.888C366.424 24.192 367.064 24.512 367.592 24.848C368.12 25.184 368.52 25.6 368.792 26.096C369.064 26.592 369.2 27.232 369.2 28.016ZM378.205 18.584C379.453 18.584 380.525 18.816 381.421 19.28C382.333 19.728 383.029 20.4 383.509 21.296C384.005 22.176 384.253 23.272 384.253 24.584V26.456H375.925C375.957 27.32 376.237 28.008 376.765 28.52C377.293 29.032 378.045 29.288 379.021 29.288C379.869 29.288 380.637 29.208 381.325 29.048C382.013 28.888 382.725 28.632 383.461 28.28V31.28C382.821 31.616 382.133 31.856 381.397 32C380.661 32.16 379.757 32.24 378.685 32.24C377.357 32.24 376.173 32 375.133 31.52C374.109 31.04 373.301 30.304 372.709 29.312C372.133 28.304 371.845 27.032 371.845 25.496C371.845 23.928 372.109 22.64 372.637 21.632C373.165 20.608 373.909 19.848 374.869 19.352C375.829 18.84 376.941 18.584 378.205 18.584ZM378.277 21.392C377.653 21.392 377.133 21.592 376.717 21.992C376.317 22.376 376.077 22.992 375.997 23.84H380.533C380.533 23.376 380.445 22.96 380.269 22.592C380.109 22.224 379.861 21.936 379.525 21.728C379.189 21.504 378.773 21.392 378.277 21.392ZM395.29 18.584C395.498 18.584 395.73 18.6 395.986 18.632C396.242 18.648 396.442 18.672 396.586 18.704L396.25 22.496C396.106 22.464 395.922 22.44 395.698 22.424C395.474 22.392 395.226 22.376 394.954 22.376C394.57 22.376 394.186 22.424 393.802 22.52C393.418 22.6 393.066 22.752 392.746 22.976C392.426 23.184 392.17 23.488 391.978 23.888C391.786 24.272 391.69 24.776 391.69 25.4V32H387.634V18.824H390.682L391.306 20.984H391.474C391.73 20.536 392.05 20.136 392.434 19.784C392.818 19.416 393.25 19.128 393.73 18.92C394.226 18.696 394.746 18.584 395.29 18.584ZM402.641 32L397.625 18.824H401.849L404.249 26.456C404.297 26.632 404.345 26.848 404.393 27.104C404.457 27.344 404.505 27.592 404.537 27.848C404.585 28.088 404.609 28.312 404.609 28.52H404.705C404.705 28.296 404.721 28.064 404.753 27.824C404.801 27.584 404.849 27.352 404.897 27.128C404.961 26.888 405.025 26.672 405.089 26.48L407.537 18.824H411.737L406.721 32H402.641ZM420.023 18.56C421.735 18.56 423.063 18.96 424.007 19.76C424.951 20.544 425.423 21.712 425.423 23.264V32H422.615L421.823 30.224H421.727C421.359 30.688 420.975 31.072 420.575 31.376C420.191 31.68 419.743 31.896 419.231 32.024C418.735 32.168 418.119 32.24 417.383 32.24C416.615 32.24 415.919 32.088 415.295 31.784C414.687 31.48 414.207 31.016 413.855 30.392C413.503 29.768 413.327 28.976 413.327 28.016C413.327 26.608 413.815 25.568 414.791 24.896C415.783 24.224 417.231 23.848 419.135 23.768L421.391 23.696V23.312C421.391 22.672 421.223 22.208 420.887 21.92C420.567 21.632 420.119 21.488 419.543 21.488C418.967 21.488 418.367 21.584 417.743 21.776C417.119 21.952 416.487 22.176 415.847 22.448L414.623 19.76C415.343 19.376 416.159 19.08 417.071 18.872C417.983 18.664 418.967 18.56 420.023 18.56ZM420.167 26.048C419.159 26.08 418.455 26.264 418.055 26.6C417.655 26.92 417.455 27.36 417.455 27.92C417.455 28.416 417.599 28.776 417.887 29C418.175 29.224 418.543 29.336 418.991 29.336C419.663 29.336 420.231 29.136 420.695 28.736C421.159 28.32 421.391 27.76 421.391 27.056V26L420.167 26.048ZM435.47 29.024C435.886 29.024 436.27 28.984 436.622 28.904C436.974 28.824 437.334 28.72 437.702 28.592V31.568C437.27 31.76 436.774 31.92 436.214 32.048C435.654 32.176 434.99 32.24 434.222 32.24C433.406 32.24 432.678 32.112 432.038 31.856C431.414 31.584 430.918 31.128 430.55 30.488C430.198 29.832 430.022 28.928 430.022 27.776V21.848H428.342V20.168L430.358 18.872L431.462 16.088H434.054V18.824H437.558V21.848H434.054V27.632C434.054 28.096 434.182 28.448 434.438 28.688C434.694 28.912 435.038 29.024 435.47 29.024ZM453.125 25.376C453.125 26.48 452.973 27.456 452.669 28.304C452.381 29.152 451.949 29.872 451.373 30.464C450.813 31.056 450.133 31.504 449.333 31.808C448.549 32.096 447.645 32.24 446.621 32.24C445.693 32.24 444.829 32.096 444.029 31.808C443.245 31.504 442.565 31.064 441.989 30.488C441.429 29.896 440.989 29.176 440.669 28.328C440.349 27.464 440.189 26.48 440.189 25.376C440.189 23.92 440.445 22.688 440.957 21.68C441.485 20.672 442.237 19.904 443.213 19.376C444.189 18.848 445.349 18.584 446.693 18.584C447.957 18.584 449.069 18.848 450.029 19.376C450.989 19.904 451.741 20.672 452.285 21.68C452.845 22.688 453.125 23.92 453.125 25.376ZM444.293 25.376C444.293 26.192 444.373 26.88 444.533 27.44C444.693 28 444.949 28.424 445.301 28.712C445.653 28.984 446.109 29.12 446.669 29.12C447.245 29.12 447.701 28.984 448.037 28.712C448.373 28.424 448.621 28 448.781 27.44C448.941 26.88 449.021 26.192 449.021 25.376C449.021 24.56 448.941 23.88 448.781 23.336C448.621 22.792 448.365 22.384 448.013 22.112C447.677 21.84 447.221 21.704 446.645 21.704C445.829 21.704 445.229 22.016 444.845 22.64C444.477 23.248 444.293 24.16 444.293 25.376ZM464.22 18.584C464.428 18.584 464.66 18.6 464.916 18.632C465.172 18.648 465.372 18.672 465.516 18.704L465.18 22.496C465.036 22.464 464.852 22.44 464.628 22.424C464.404 22.392 464.156 22.376 463.884 22.376C463.5 22.376 463.116 22.424 462.732 22.52C462.348 22.6 461.996 22.752 461.676 22.976C461.356 23.184 461.1 23.488 460.908 23.888C460.716 24.272 460.62 24.776 460.62 25.4V32H456.564V18.824H459.612L460.236 20.984H460.404C460.66 20.536 460.98 20.136 461.364 19.784C461.748 19.416 462.18 19.128 462.66 18.92C463.156 18.696 463.676 18.584 464.22 18.584ZM466.555 18.824H470.875L473.251 26.288C473.315 26.48 473.363 26.68 473.395 26.888C473.443 27.08 473.483 27.288 473.515 27.512C473.547 27.72 473.571 27.944 473.587 28.184H473.659C473.707 27.816 473.763 27.48 473.827 27.176C473.907 26.856 473.987 26.568 474.067 26.312L476.443 18.824H480.667L475.243 33.296C474.891 34.272 474.443 35.088 473.899 35.744C473.371 36.416 472.731 36.92 471.979 37.256C471.243 37.592 470.379 37.76 469.387 37.76C468.987 37.76 468.635 37.736 468.331 37.688C468.027 37.656 467.763 37.616 467.539 37.568V34.376C467.715 34.408 467.923 34.44 468.163 34.472C468.419 34.504 468.683 34.52 468.955 34.52C469.467 34.52 469.891 34.416 470.227 34.208C470.563 34 470.843 33.72 471.067 33.368C471.291 33.032 471.475 32.664 471.619 32.264L471.763 31.856L466.555 18.824ZM497.595 21.848H494.619V32H490.587V21.848H488.715V19.88L490.635 18.848V18.224C490.635 17.088 490.803 16.192 491.139 15.536C491.475 14.864 491.987 14.384 492.675 14.096C493.363 13.792 494.203 13.64 495.195 13.64C495.899 13.64 496.531 13.696 497.091 13.808C497.651 13.92 498.171 14.056 498.651 14.216L497.691 17C497.451 16.936 497.179 16.872 496.875 16.808C496.571 16.744 496.235 16.712 495.867 16.712C495.435 16.712 495.115 16.848 494.907 17.12C494.715 17.376 494.619 17.744 494.619 18.224V18.824H497.595V21.848ZM512.445 25.376C512.445 26.48 512.293 27.456 511.989 28.304C511.701 29.152 511.269 29.872 510.693 30.464C510.133 31.056 509.453 31.504 508.653 31.808C507.869 32.096 506.965 32.24 505.941 32.24C505.013 32.24 504.149 32.096 503.349 31.808C502.565 31.504 501.885 31.064 501.309 30.488C500.749 29.896 500.309 29.176 499.989 28.328C499.669 27.464 499.509 26.48 499.509 25.376C499.509 23.92 499.765 22.688 500.277 21.68C500.805 20.672 501.557 19.904 502.533 19.376C503.509 18.848 504.669 18.584 506.013 18.584C507.277 18.584 508.389 18.848 509.349 19.376C510.309 19.904 511.061 20.672 511.605 21.68C512.165 22.688 512.445 23.92 512.445 25.376ZM503.613 25.376C503.613 26.192 503.693 26.88 503.853 27.44C504.013 28 504.269 28.424 504.621 28.712C504.973 28.984 505.429 29.12 505.989 29.12C506.565 29.12 507.021 28.984 507.357 28.712C507.693 28.424 507.941 28 508.101 27.44C508.261 26.88 508.341 26.192 508.341 25.376C508.341 24.56 508.261 23.88 508.101 23.336C507.941 22.792 507.685 22.384 507.333 22.112C506.997 21.84 506.541 21.704 505.965 21.704C505.149 21.704 504.549 22.016 504.165 22.64C503.797 23.248 503.613 24.16 503.613 25.376ZM523.54 18.584C523.748 18.584 523.98 18.6 524.236 18.632C524.492 18.648 524.692 18.672 524.836 18.704L524.5 22.496C524.356 22.464 524.172 22.44 523.948 22.424C523.724 22.392 523.476 22.376 523.204 22.376C522.82 22.376 522.436 22.424 522.052 22.52C521.668 22.6 521.316 22.752 520.996 22.976C520.676 23.184 520.42 23.488 520.228 23.888C520.036 24.272 519.94 24.776 519.94 25.4V32H515.884V18.824H518.932L519.556 20.984H519.724C519.98 20.536 520.3 20.136 520.684 19.784C521.068 19.416 521.5 19.128 521.98 18.92C522.476 18.696 522.996 18.584 523.54 18.584ZM278.048 64H273.968V50.248H269.528V46.864H282.488V50.248H278.048V64ZM289.424 50.584C290.672 50.584 291.744 50.816 292.64 51.28C293.552 51.728 294.248 52.4 294.728 53.296C295.224 54.176 295.472 55.272 295.472 56.584V58.456H287.144C287.176 59.32 287.456 60.008 287.984 60.52C288.512 61.032 289.264 61.288 290.24 61.288C291.088 61.288 291.856 61.208 292.544 61.048C293.232 60.888 293.944 60.632 294.68 60.28V63.28C294.04 63.616 293.352 63.856 292.616 64C291.88 64.16 290.976 64.24 289.904 64.24C288.576 64.24 287.392 64 286.352 63.52C285.328 63.04 284.52 62.304 283.928 61.312C283.352 60.304 283.064 59.032 283.064 57.496C283.064 55.928 283.328 54.64 283.856 53.632C284.384 52.608 285.128 51.848 286.088 51.352C287.048 50.84 288.16 50.584 289.424 50.584ZM289.496 53.392C288.872 53.392 288.352 53.592 287.936 53.992C287.536 54.376 287.296 54.992 287.216 55.84H291.752C291.752 55.376 291.664 54.96 291.488 54.592C291.328 54.224 291.08 53.936 290.744 53.728C290.408 53.504 289.992 53.392 289.496 53.392ZM304.517 64.24C303.205 64.24 302.069 64.008 301.109 63.544C300.165 63.064 299.437 62.328 298.925 61.336C298.429 60.328 298.181 59.04 298.181 57.472C298.181 55.872 298.461 54.568 299.021 53.56C299.597 52.536 300.389 51.784 301.397 51.304C302.405 50.824 303.557 50.584 304.853 50.584C305.717 50.584 306.493 50.672 307.181 50.848C307.885 51.024 308.509 51.248 309.053 51.52L307.877 54.568C307.317 54.344 306.797 54.16 306.317 54.016C305.837 53.872 305.349 53.8 304.853 53.8C304.309 53.8 303.845 53.936 303.461 54.208C303.077 54.464 302.781 54.864 302.573 55.408C302.381 55.952 302.285 56.632 302.285 57.448C302.285 58.264 302.389 58.936 302.597 59.464C302.805 59.976 303.101 60.36 303.485 60.616C303.869 60.872 304.333 61 304.877 61C305.581 61 306.237 60.896 306.845 60.688C307.469 60.48 308.061 60.2 308.621 59.848V63.16C308.077 63.512 307.485 63.784 306.845 63.976C306.205 64.152 305.429 64.24 304.517 64.24ZM316.198 48.952C316.198 49.752 316.174 50.472 316.126 51.112C316.078 51.736 316.038 52.192 316.006 52.48H316.222C316.51 52.016 316.838 51.648 317.206 51.376C317.574 51.104 317.99 50.904 318.454 50.776C318.918 50.648 319.414 50.584 319.942 50.584C320.854 50.584 321.662 50.752 322.366 51.088C323.07 51.424 323.622 51.944 324.022 52.648C324.438 53.352 324.646 54.272 324.646 55.408V64H320.59V56.536C320.59 55.608 320.438 54.92 320.134 54.472C319.846 54.008 319.374 53.776 318.718 53.776C318.078 53.776 317.574 53.944 317.206 54.28C316.838 54.6 316.574 55.072 316.414 55.696C316.27 56.32 316.198 57.088 316.198 58V64H312.142V45.76H316.198V48.952ZM336.56 50.584C337.952 50.584 339.072 50.968 339.92 51.736C340.784 52.488 341.216 53.712 341.216 55.408V64H337.184V56.536C337.184 55.624 337.032 54.936 336.728 54.472C336.424 54.008 335.944 53.776 335.288 53.776C334.312 53.776 333.648 54.144 333.296 54.88C332.944 55.6 332.768 56.64 332.768 58V64H328.712V50.824H331.784L332.336 52.528H332.528C332.816 52.096 333.16 51.736 333.56 51.448C333.96 51.16 334.416 50.944 334.928 50.8C335.44 50.656 335.984 50.584 336.56 50.584ZM357.547 57.376C357.547 58.48 357.395 59.456 357.091 60.304C356.803 61.152 356.371 61.872 355.795 62.464C355.235 63.056 354.555 63.504 353.755 63.808C352.971 64.096 352.067 64.24 351.043 64.24C350.115 64.24 349.251 64.096 348.451 63.808C347.667 63.504 346.987 63.064 346.411 62.488C345.851 61.896 345.411 61.176 345.091 60.328C344.771 59.464 344.611 58.48 344.611 57.376C344.611 55.92 344.867 54.688 345.379 53.68C345.907 52.672 346.659 51.904 347.635 51.376C348.611 50.848 349.771 50.584 351.115 50.584C352.379 50.584 353.491 50.848 354.451 51.376C355.411 51.904 356.163 52.672 356.707 53.68C357.267 54.688 357.547 55.92 357.547 57.376ZM348.715 57.376C348.715 58.192 348.795 58.88 348.955 59.44C349.115 60 349.371 60.424 349.723 60.712C350.075 60.984 350.531 61.12 351.091 61.12C351.667 61.12 352.123 60.984 352.459 60.712C352.795 60.424 353.043 60 353.203 59.44C353.363 58.88 353.443 58.192 353.443 57.376C353.443 56.56 353.363 55.88 353.203 55.336C353.043 54.792 352.787 54.384 352.435 54.112C352.099 53.84 351.643 53.704 351.067 53.704C350.251 53.704 349.651 54.016 349.267 54.64C348.899 55.248 348.715 56.16 348.715 57.376ZM365.042 64H360.986V45.76H365.042V64ZM381.43 57.376C381.43 58.48 381.278 59.456 380.974 60.304C380.686 61.152 380.254 61.872 379.678 62.464C379.118 63.056 378.438 63.504 377.638 63.808C376.854 64.096 375.95 64.24 374.926 64.24C373.998 64.24 373.134 64.096 372.334 63.808C371.55 63.504 370.87 63.064 370.294 62.488C369.734 61.896 369.294 61.176 368.974 60.328C368.654 59.464 368.494 58.48 368.494 57.376C368.494 55.92 368.75 54.688 369.262 53.68C369.79 52.672 370.542 51.904 371.518 51.376C372.494 50.848 373.654 50.584 374.998 50.584C376.262 50.584 377.374 50.848 378.334 51.376C379.294 51.904 380.046 52.672 380.59 53.68C381.15 54.688 381.43 55.92 381.43 57.376ZM372.598 57.376C372.598 58.192 372.678 58.88 372.838 59.44C372.998 60 373.254 60.424 373.605 60.712C373.958 60.984 374.414 61.12 374.974 61.12C375.55 61.12 376.006 60.984 376.342 60.712C376.678 60.424 376.926 60 377.086 59.44C377.246 58.88 377.326 58.192 377.326 57.376C377.326 56.56 377.246 55.88 377.086 55.336C376.926 54.792 376.67 54.384 376.318 54.112C375.982 53.84 375.526 53.704 374.95 53.704C374.134 53.704 373.534 54.016 373.15 54.64C372.782 55.248 372.598 56.16 372.598 57.376ZM389.117 50.584C389.981 50.584 390.717 50.752 391.325 51.088C391.933 51.424 392.437 51.888 392.837 52.48H392.933L393.245 50.824H396.701V64.024C396.701 65.272 396.453 66.32 395.957 67.168C395.461 68.016 394.709 68.656 393.701 69.088C392.693 69.536 391.429 69.76 389.909 69.76C388.917 69.76 388.013 69.704 387.197 69.592C386.397 69.48 385.621 69.28 384.869 68.992V65.704C385.413 65.928 385.941 66.112 386.453 66.256C386.981 66.416 387.525 66.528 388.085 66.592C388.661 66.672 389.269 66.712 389.909 66.712C390.837 66.712 391.525 66.496 391.973 66.064C392.437 65.648 392.669 65.024 392.669 64.192V63.928C392.669 63.688 392.677 63.424 392.693 63.136C392.725 62.848 392.757 62.568 392.789 62.296H392.669C392.285 62.92 391.797 63.4 391.205 63.736C390.613 64.072 389.893 64.24 389.045 64.24C387.557 64.24 386.373 63.648 385.493 62.464C384.629 61.28 384.197 59.6 384.197 57.424C384.197 55.952 384.397 54.712 384.797 53.704C385.197 52.68 385.765 51.904 386.501 51.376C387.253 50.848 388.125 50.584 389.117 50.584ZM390.533 53.776C390.037 53.776 389.621 53.92 389.285 54.208C388.949 54.48 388.701 54.888 388.541 55.432C388.381 55.976 388.301 56.664 388.301 57.496C388.301 58.728 388.485 59.64 388.853 60.232C389.221 60.808 389.797 61.096 390.581 61.096C391.013 61.096 391.373 61.04 391.661 60.928C391.965 60.8 392.205 60.608 392.381 60.352C392.573 60.08 392.717 59.744 392.813 59.344C392.909 58.944 392.957 58.464 392.957 57.904V57.4C392.957 56.584 392.877 55.912 392.717 55.384C392.557 54.84 392.301 54.44 391.949 54.184C391.597 53.912 391.125 53.776 390.533 53.776ZM404.886 50.824V64H400.854V50.824H404.886ZM402.894 45.592C403.47 45.592 403.974 45.72 404.406 45.976C404.838 46.232 405.054 46.728 405.054 47.464C405.054 48.184 404.838 48.68 404.406 48.952C403.974 49.208 403.47 49.336 402.894 49.336C402.286 49.336 401.766 49.208 401.334 48.952C400.918 48.68 400.71 48.184 400.71 47.464C400.71 46.728 400.918 46.232 401.334 45.976C401.766 45.72 402.286 45.592 402.894 45.592ZM414.697 64.24C413.385 64.24 412.249 64.008 411.289 63.544C410.345 63.064 409.617 62.328 409.105 61.336C408.609 60.328 408.361 59.04 408.361 57.472C408.361 55.872 408.641 54.568 409.201 53.56C409.777 52.536 410.569 51.784 411.577 51.304C412.585 50.824 413.737 50.584 415.033 50.584C415.897 50.584 416.673 50.672 417.361 50.848C418.065 51.024 418.689 51.248 419.233 51.52L418.057 54.568C417.497 54.344 416.977 54.16 416.497 54.016C416.017 53.872 415.529 53.8 415.033 53.8C414.489 53.8 414.025 53.936 413.641 54.208C413.257 54.464 412.961 54.864 412.753 55.408C412.561 55.952 412.465 56.632 412.465 57.448C412.465 58.264 412.569 58.936 412.777 59.464C412.985 59.976 413.281 60.36 413.665 60.616C414.049 60.872 414.513 61 415.057 61C415.761 61 416.417 60.896 417.025 60.688C417.649 60.48 418.241 60.2 418.801 59.848V63.16C418.257 63.512 417.665 63.784 417.025 63.976C416.385 64.152 415.609 64.24 414.697 64.24ZM428.226 50.56C429.938 50.56 431.266 50.96 432.21 51.76C433.154 52.544 433.626 53.712 433.626 55.264V64H430.818L430.026 62.224H429.93C429.562 62.688 429.178 63.072 428.778 63.376C428.394 63.68 427.946 63.896 427.434 64.024C426.938 64.168 426.322 64.24 425.586 64.24C424.818 64.24 424.122 64.088 423.498 63.784C422.89 63.48 422.41 63.016 422.058 62.392C421.706 61.768 421.53 60.976 421.53 60.016C421.53 58.608 422.018 57.568 422.994 56.896C423.986 56.224 425.434 55.848 427.338 55.768L429.594 55.696V55.312C429.594 54.672 429.426 54.208 429.09 53.92C428.77 53.632 428.322 53.488 427.746 53.488C427.17 53.488 426.57 53.584 425.946 53.776C425.322 53.952 424.69 54.176 424.05 54.448L422.826 51.76C423.546 51.376 424.362 51.08 425.274 50.872C426.186 50.664 427.17 50.56 428.226 50.56ZM428.37 58.048C427.362 58.08 426.658 58.264 426.258 58.6C425.858 58.92 425.658 59.36 425.658 59.92C425.658 60.416 425.802 60.776 426.09 61C426.378 61.224 426.746 61.336 427.194 61.336C427.866 61.336 428.434 61.136 428.898 60.736C429.362 60.32 429.594 59.76 429.594 59.056V58L428.37 58.048ZM441.753 64H437.697V45.76H441.753V64ZM468.823 55.408C468.823 56.64 468.679 57.776 468.391 58.816C468.119 59.856 467.687 60.76 467.095 61.528C466.519 62.296 465.767 62.912 464.839 63.376L468.991 68.08H463.831L460.807 64.24C460.775 64.24 460.735 64.24 460.687 64.24C460.655 64.24 460.623 64.24 460.591 64.24C459.183 64.24 457.959 64.032 456.919 63.616C455.879 63.184 455.023 62.584 454.351 61.816C453.679 61.032 453.175 60.096 452.839 59.008C452.519 57.92 452.359 56.712 452.359 55.384C452.359 53.608 452.647 52.064 453.223 50.752C453.815 49.44 454.719 48.424 455.935 47.704C457.167 46.968 458.727 46.6 460.615 46.6C462.519 46.6 464.071 46.968 465.271 47.704C466.487 48.424 467.383 49.448 467.959 50.776C468.535 52.088 468.823 53.632 468.823 55.408ZM456.655 55.408C456.655 56.528 456.791 57.496 457.063 58.312C457.335 59.112 457.759 59.728 458.335 60.16C458.927 60.592 459.679 60.808 460.591 60.808C461.535 60.808 462.295 60.592 462.871 60.16C463.447 59.728 463.863 59.112 464.119 58.312C464.391 57.496 464.527 56.528 464.527 55.408C464.527 53.712 464.223 52.384 463.615 51.424C463.023 50.464 462.023 49.984 460.615 49.984C459.687 49.984 458.927 50.208 458.335 50.656C457.759 51.088 457.335 51.712 457.063 52.528C456.791 53.328 456.655 54.288 456.655 55.408ZM484.981 50.824V64H481.909L481.381 62.32H481.141C480.869 62.768 480.517 63.136 480.085 63.424C479.669 63.696 479.205 63.896 478.693 64.024C478.197 64.168 477.677 64.24 477.133 64.24C476.237 64.24 475.437 64.072 474.733 63.736C474.029 63.4 473.477 62.88 473.077 62.176C472.677 61.456 472.477 60.536 472.477 59.416V50.824H476.533V58.288C476.533 59.184 476.677 59.864 476.965 60.328C477.269 60.792 477.749 61.024 478.405 61.024C479.061 61.024 479.573 60.864 479.941 60.544C480.309 60.224 480.565 59.752 480.709 59.128C480.853 58.488 480.925 57.72 480.925 56.824V50.824H484.981ZM494.783 50.584C496.031 50.584 497.103 50.816 497.999 51.28C498.911 51.728 499.607 52.4 500.087 53.296C500.583 54.176 500.831 55.272 500.831 56.584V58.456H492.503C492.535 59.32 492.815 60.008 493.343 60.52C493.871 61.032 494.623 61.288 495.599 61.288C496.447 61.288 497.215 61.208 497.903 61.048C498.591 60.888 499.303 60.632 500.039 60.28V63.28C499.399 63.616 498.711 63.856 497.975 64C497.239 64.16 496.335 64.24 495.263 64.24C493.935 64.24 492.751 64 491.711 63.52C490.687 63.04 489.879 62.304 489.287 61.312C488.711 60.304 488.423 59.032 488.423 57.496C488.423 55.928 488.687 54.64 489.215 53.632C489.743 52.608 490.487 51.848 491.447 51.352C492.407 50.84 493.519 50.584 494.783 50.584ZM494.855 53.392C494.231 53.392 493.711 53.592 493.295 53.992C492.895 54.376 492.655 54.992 492.575 55.84H497.111C497.111 55.376 497.023 54.96 496.847 54.592C496.687 54.224 496.439 53.936 496.103 53.728C495.767 53.504 495.351 53.392 494.855 53.392ZM513.692 60.016C513.692 60.88 513.492 61.632 513.092 62.272C512.708 62.896 512.1 63.384 511.268 63.736C510.436 64.072 509.38 64.24 508.1 64.24C507.172 64.24 506.356 64.184 505.652 64.072C504.964 63.96 504.268 63.76 503.564 63.472V60.208C504.332 60.544 505.132 60.808 505.964 61C506.812 61.192 507.516 61.288 508.076 61.288C508.684 61.288 509.124 61.208 509.396 61.048C509.668 60.888 509.804 60.664 509.804 60.376C509.804 60.168 509.732 59.984 509.588 59.824C509.46 59.664 509.188 59.48 508.772 59.272C508.372 59.064 507.772 58.8 506.972 58.48C506.188 58.144 505.54 57.8 505.028 57.448C504.532 57.096 504.156 56.672 503.9 56.176C503.66 55.68 503.54 55.072 503.54 54.352C503.54 53.104 504.02 52.168 504.98 51.544C505.956 50.904 507.244 50.584 508.844 50.584C509.692 50.584 510.492 50.672 511.244 50.848C511.996 51.024 512.772 51.296 513.572 51.664L512.42 54.4C511.988 54.208 511.556 54.04 511.124 53.896C510.708 53.752 510.308 53.64 509.924 53.56C509.54 53.48 509.18 53.44 508.844 53.44C508.396 53.44 508.052 53.504 507.812 53.632C507.572 53.744 507.452 53.92 507.452 54.16C507.452 54.336 507.516 54.504 507.644 54.664C507.788 54.808 508.052 54.968 508.436 55.144C508.836 55.32 509.412 55.568 510.164 55.888C510.916 56.192 511.556 56.512 512.084 56.848C512.612 57.184 513.012 57.6 513.284 58.096C513.556 58.592 513.692 59.232 513.692 60.016ZM522.985 61.024C523.401 61.024 523.785 60.984 524.137 60.904C524.489 60.824 524.849 60.72 525.217 60.592V63.568C524.785 63.76 524.289 63.92 523.729 64.048C523.169 64.176 522.505 64.24 521.737 64.24C520.921 64.24 520.193 64.112 519.553 63.856C518.929 63.584 518.433 63.128 518.065 62.488C517.713 61.832 517.537 60.928 517.537 59.776V53.848H515.857V52.168L517.873 50.872L518.977 48.088H521.569V50.824H525.073V53.848H521.569V59.632C521.569 60.096 521.697 60.448 521.953 60.688C522.209 60.912 522.553 61.024 522.985 61.024ZM532.432 50.824V64H528.4V50.824H532.432ZM530.44 45.592C531.016 45.592 531.52 45.72 531.952 45.976C532.384 46.232 532.6 46.728 532.6 47.464C532.6 48.184 532.384 48.68 531.952 48.952C531.52 49.208 531.016 49.336 530.44 49.336C529.832 49.336 529.312 49.208 528.88 48.952C528.464 48.68 528.256 48.184 528.256 47.464C528.256 46.728 528.464 46.232 528.88 45.976C529.312 45.72 529.832 45.592 530.44 45.592ZM548.844 57.376C548.844 58.48 548.692 59.456 548.388 60.304C548.1 61.152 547.668 61.872 547.092 62.464C546.532 63.056 545.852 63.504 545.052 63.808C544.268 64.096 543.364 64.24 542.34 64.24C541.412 64.24 540.548 64.096 539.748 63.808C538.964 63.504 538.284 63.064 537.708 62.488C537.148 61.896 536.708 61.176 536.388 60.328C536.068 59.464 535.908 58.48 535.908 57.376C535.908 55.92 536.164 54.688 536.676 53.68C537.204 52.672 537.956 51.904 538.932 51.376C539.908 50.848 541.068 50.584 542.412 50.584C543.676 50.584 544.788 50.848 545.748 51.376C546.708 51.904 547.46 52.672 548.004 53.68C548.564 54.688 548.844 55.92 548.844 57.376ZM540.012 57.376C540.012 58.192 540.092 58.88 540.252 59.44C540.412 60 540.668 60.424 541.02 60.712C541.372 60.984 541.828 61.12 542.388 61.12C542.964 61.12 543.42 60.984 543.756 60.712C544.092 60.424 544.34 60 544.5 59.44C544.66 58.88 544.74 58.192 544.74 57.376C544.74 56.56 544.66 55.88 544.5 55.336C544.34 54.792 544.084 54.384 543.732 54.112C543.396 53.84 542.94 53.704 542.364 53.704C541.548 53.704 540.948 54.016 540.564 54.64C540.196 55.248 540.012 56.16 540.012 57.376ZM560.131 50.584C561.523 50.584 562.643 50.968 563.491 51.736C564.355 52.488 564.787 53.712 564.787 55.408V64H560.755V56.536C560.755 55.624 560.603 54.936 560.299 54.472C559.995 54.008 559.515 53.776 558.859 53.776C557.883 53.776 557.219 54.144 556.867 54.88C556.515 55.6 556.339 56.64 556.339 58V64H552.283V50.824H555.355L555.907 52.528H556.099C556.387 52.096 556.731 51.736 557.131 51.448C557.531 51.16 557.987 50.944 558.499 50.8C559.011 50.656 559.555 50.584 560.131 50.584ZM578.333 60.016C578.333 60.88 578.133 61.632 577.733 62.272C577.349 62.896 576.741 63.384 575.909 63.736C575.077 64.072 574.021 64.24 572.741 64.24C571.813 64.24 570.997 64.184 570.293 64.072C569.605 63.96 568.909 63.76 568.205 63.472V60.208C568.973 60.544 569.773 60.808 570.605 61C571.453 61.192 572.157 61.288 572.717 61.288C573.325 61.288 573.765 61.208 574.037 61.048C574.309 60.888 574.445 60.664 574.445 60.376C574.445 60.168 574.373 59.984 574.229 59.824C574.101 59.664 573.829 59.48 573.413 59.272C573.013 59.064 572.413 58.8 571.613 58.48C570.829 58.144 570.181 57.8 569.669 57.448C569.173 57.096 568.797 56.672 568.541 56.176C568.301 55.68 568.181 55.072 568.181 54.352C568.181 53.104 568.661 52.168 569.621 51.544C570.597 50.904 571.885 50.584 573.485 50.584C574.333 50.584 575.133 50.672 575.885 50.848C576.637 51.024 577.413 51.296 578.213 51.664L577.061 54.4C576.629 54.208 576.197 54.04 575.765 53.896C575.349 53.752 574.949 53.64 574.565 53.56C574.181 53.48 573.821 53.44 573.485 53.44C573.037 53.44 572.693 53.504 572.453 53.632C572.213 53.744 572.093 53.92 572.093 54.16C572.093 54.336 572.157 54.504 572.285 54.664C572.429 54.808 572.693 54.968 573.077 55.144C573.477 55.32 574.053 55.568 574.805 55.888C575.557 56.192 576.197 56.512 576.725 56.848C577.253 57.184 577.653 57.6 577.925 58.096C578.197 58.592 578.333 59.232 578.333 60.016ZM274.784 82.824V96H270.752V82.824H274.784ZM272.792 77.592C273.368 77.592 273.872 77.72 274.304 77.976C274.736 78.232 274.952 78.728 274.952 79.464C274.952 80.184 274.736 80.68 274.304 80.952C273.872 81.208 273.368 81.336 272.792 81.336C272.184 81.336 271.664 81.208 271.232 80.952C270.816 80.68 270.608 80.184 270.608 79.464C270.608 78.728 270.816 78.232 271.232 77.976C271.664 77.72 272.184 77.592 272.792 77.592ZM286.779 82.584C288.171 82.584 289.291 82.968 290.139 83.736C291.003 84.488 291.435 85.712 291.435 87.408V96H287.403V88.536C287.403 87.624 287.251 86.936 286.947 86.472C286.643 86.008 286.163 85.776 285.507 85.776C284.531 85.776 283.867 86.144 283.515 86.88C283.163 87.6 282.987 88.64 282.987 90V96H278.931V82.824H282.003L282.555 84.528H282.747C283.035 84.096 283.379 83.736 283.779 83.448C284.179 83.16 284.635 82.944 285.147 82.8C285.659 82.656 286.203 82.584 286.779 82.584ZM313.288 91.032C313.288 92.008 313.048 92.896 312.568 93.696C312.088 94.48 311.368 95.104 310.408 95.568C309.448 96.016 308.24 96.24 306.784 96.24C306.112 96.24 305.488 96.2 304.912 96.12C304.336 96.04 303.784 95.928 303.256 95.784C302.744 95.624 302.24 95.424 301.744 95.184V91.464C302.608 91.864 303.488 92.2 304.384 92.472C305.296 92.744 306.168 92.88 307 92.88C307.528 92.88 307.952 92.816 308.272 92.688C308.608 92.544 308.848 92.36 308.992 92.136C309.152 91.896 309.232 91.624 309.232 91.32C309.232 90.952 309.104 90.64 308.848 90.384C308.608 90.112 308.248 89.856 307.768 89.616C307.288 89.36 306.704 89.072 306.016 88.752C305.504 88.528 305 88.272 304.504 87.984C304.024 87.68 303.584 87.336 303.184 86.952C302.8 86.552 302.488 86.08 302.248 85.536C302.024 84.976 301.912 84.32 301.912 83.568C301.912 82.496 302.16 81.6 302.656 80.88C303.168 80.144 303.88 79.584 304.792 79.2C305.704 78.816 306.776 78.624 308.008 78.624C309.016 78.624 309.944 78.736 310.792 78.96C311.64 79.184 312.464 79.472 313.264 79.824L311.968 83.016C311.2 82.68 310.48 82.424 309.808 82.248C309.152 82.056 308.512 81.96 307.888 81.96C307.456 81.96 307.096 82.024 306.808 82.152C306.52 82.264 306.304 82.432 306.16 82.656C306.016 82.864 305.944 83.112 305.944 83.4C305.944 83.736 306.056 84.032 306.28 84.288C306.504 84.528 306.856 84.776 307.336 85.032C307.816 85.288 308.448 85.6 309.232 85.968C310.08 86.352 310.808 86.768 311.416 87.216C312.024 87.664 312.488 88.192 312.808 88.8C313.128 89.392 313.288 90.136 313.288 91.032ZM328.836 89.376C328.836 90.48 328.684 91.456 328.38 92.304C328.092 93.152 327.66 93.872 327.084 94.464C326.524 95.056 325.844 95.504 325.044 95.808C324.26 96.096 323.356 96.24 322.332 96.24C321.404 96.24 320.54 96.096 319.74 95.808C318.956 95.504 318.276 95.064 317.7 94.488C317.14 93.896 316.7 93.176 316.38 92.328C316.06 91.464 315.9 90.48 315.9 89.376C315.9 87.92 316.156 86.688 316.668 85.68C317.196 84.672 317.948 83.904 318.924 83.376C319.9 82.848 321.06 82.584 322.404 82.584C323.668 82.584 324.78 82.848 325.74 83.376C326.7 83.904 327.452 84.672 327.996 85.68C328.556 86.688 328.836 87.92 328.836 89.376ZM320.004 89.376C320.004 90.192 320.084 90.88 320.244 91.44C320.404 92 320.66 92.424 321.012 92.712C321.364 92.984 321.82 93.12 322.38 93.12C322.956 93.12 323.412 92.984 323.748 92.712C324.084 92.424 324.332 92 324.492 91.44C324.652 90.88 324.732 90.192 324.732 89.376C324.732 88.56 324.652 87.88 324.492 87.336C324.332 86.792 324.076 86.384 323.724 86.112C323.388 85.84 322.932 85.704 322.356 85.704C321.54 85.704 320.94 86.016 320.556 86.64C320.188 87.248 320.004 88.16 320.004 89.376ZM337.939 96.24C336.627 96.24 335.491 96.008 334.531 95.544C333.587 95.064 332.859 94.328 332.347 93.336C331.851 92.328 331.603 91.04 331.603 89.472C331.603 87.872 331.883 86.568 332.443 85.56C333.019 84.536 333.811 83.784 334.819 83.304C335.827 82.824 336.979 82.584 338.275 82.584C339.139 82.584 339.915 82.672 340.603 82.848C341.307 83.024 341.931 83.248 342.475 83.52L341.299 86.568C340.739 86.344 340.219 86.16 339.739 86.016C339.259 85.872 338.771 85.8 338.275 85.8C337.731 85.8 337.267 85.936 336.883 86.208C336.499 86.464 336.203 86.864 335.995 87.408C335.803 87.952 335.707 88.632 335.707 89.448C335.707 90.264 335.811 90.936 336.019 91.464C336.227 91.976 336.523 92.36 336.907 92.616C337.291 92.872 337.755 93 338.299 93C339.003 93 339.659 92.896 340.267 92.688C340.891 92.48 341.483 92.2 342.043 91.848V95.16C341.499 95.512 340.907 95.784 340.267 95.976C339.627 96.152 338.851 96.24 337.939 96.24ZM349.62 82.824V96H345.588V82.824H349.62ZM347.628 77.592C348.204 77.592 348.708 77.72 349.14 77.976C349.572 78.232 349.788 78.728 349.788 79.464C349.788 80.184 349.572 80.68 349.14 80.952C348.708 81.208 348.204 81.336 347.628 81.336C347.02 81.336 346.5 81.208 346.068 80.952C345.652 80.68 345.444 80.184 345.444 79.464C345.444 78.728 345.652 78.232 346.068 77.976C346.5 77.72 347.02 77.592 347.628 77.592ZM359.455 82.584C360.703 82.584 361.775 82.816 362.671 83.28C363.583 83.728 364.279 84.4 364.759 85.296C365.255 86.176 365.503 87.272 365.503 88.584V90.456H357.175C357.207 91.32 357.487 92.008 358.015 92.52C358.543 93.032 359.295 93.288 360.271 93.288C361.119 93.288 361.887 93.208 362.575 93.048C363.263 92.888 363.975 92.632 364.711 92.28V95.28C364.071 95.616 363.383 95.856 362.647 96C361.911 96.16 361.007 96.24 359.935 96.24C358.607 96.24 357.423 96 356.383 95.52C355.359 95.04 354.551 94.304 353.959 93.312C353.383 92.304 353.095 91.032 353.095 89.496C353.095 87.928 353.359 86.64 353.887 85.632C354.415 84.608 355.159 83.848 356.119 83.352C357.079 82.84 358.191 82.584 359.455 82.584ZM359.527 85.392C358.903 85.392 358.383 85.592 357.967 85.992C357.567 86.376 357.327 86.992 357.247 87.84H361.783C361.783 87.376 361.695 86.96 361.519 86.592C361.359 86.224 361.111 85.936 360.775 85.728C360.439 85.504 360.023 85.392 359.527 85.392ZM374.86 93.024C375.276 93.024 375.66 92.984 376.012 92.904C376.364 92.824 376.724 92.72 377.092 92.592V95.568C376.66 95.76 376.164 95.92 375.604 96.048C375.044 96.176 374.38 96.24 373.612 96.24C372.796 96.24 372.068 96.112 371.428 95.856C370.804 95.584 370.308 95.128 369.94 94.488C369.588 93.832 369.412 92.928 369.412 91.776V85.848H367.732V84.168L369.748 82.872L370.852 80.088H373.444V82.824H376.948V85.848H373.444V91.632C373.444 92.096 373.572 92.448 373.828 92.688C374.084 92.912 374.428 93.024 374.86 93.024ZM378.523 82.824H382.843L385.219 90.288C385.283 90.48 385.331 90.68 385.363 90.888C385.411 91.08 385.451 91.288 385.483 91.512C385.515 91.72 385.539 91.944 385.555 92.184H385.627C385.675 91.816 385.731 91.48 385.795 91.176C385.875 90.856 385.955 90.568 386.035 90.312L388.411 82.824H392.635L387.211 97.296C386.859 98.272 386.411 99.088 385.867 99.744C385.339 100.416 384.699 100.92 383.947 101.256C383.211 101.592 382.347 101.76 381.355 101.76C380.955 101.76 380.603 101.736 380.299 101.688C379.995 101.656 379.731 101.616 379.507 101.568V98.376C379.683 98.408 379.891 98.44 380.131 98.472C380.387 98.504 380.651 98.52 380.923 98.52C381.435 98.52 381.859 98.416 382.195 98.208C382.531 98 382.811 97.72 383.035 97.368C383.259 97.032 383.443 96.664 383.587 96.264L383.731 95.856L378.523 82.824Z" fill="#030F4F"/>
</svg>
